<svg xmlns="http://www.w3.org/2000/svg" viewBox="0 0 750 500"><g id="freepik--background-complete--inject-4"><path d="M133.85,38.77s-12,4.52-12.32,7c0,0,2.64,9,14.11,15.41l-.55,4.21,1.86,6c1.59-9,2.35-22.38,2.35-22.38S136.89,40.53,133.85,38.77Z" style="fill:#ebebeb"></path><path d="M133.66,39.7s-.81,12.41,4.29,19.57C138,59.27,140.75,47.65,133.66,39.7Z" style="fill:#e0e0e0"></path><path d="M157.27,47.83s-9.05-9.08-11.41-8.37c0,0-7.15,6.13-8.24,19.21l-4.07,1.22S128.49,51.25,116,49.51c0,0-2.71,13.09-3,13.05a23.11,23.11,0,0,0,15.77,1.5c8.9-2.28,21.37-7.06,21.37-7.06S156.92,51.33,157.27,47.83Z" style="fill:#ebebeb"></path><path d="M131.92,62.06s-10.81-2.43-18.06.37C113.86,62.43,124.69,67,131.92,62.06Z" style="fill:#e0e0e0"></path><path d="M156.35,48s-11.64,4.36-16.07,12C140.28,60,152,57.78,156.35,48Z" style="fill:#e0e0e0"></path><polygon points="177.06 48.6 189 98.27 113.67 120.98 97.9 72.47 177.06 48.6" style="fill:#ebebeb"></polygon><polygon points="162.77 52.91 177.49 101.74 189 98.27 177.06 48.6 162.77 52.91" style="fill:#e0e0e0"></polygon><polygon points="171.4 50.31 184.2 99.71 181.59 100.5 166.87 51.68 171.4 50.31" style="fill:#fafafa"></polygon><rect x="135.03" y="61.42" width="6.56" height="50.99" transform="translate(-19.2 43.63) rotate(-16.78)" style="fill:#fafafa"></rect><rect x="103.76" y="81.72" width="80.64" height="4.95" transform="translate(-18.53 46.7) rotate(-17.32)" style="fill:#fafafa"></rect><path d="M662.66,213s-9.1-.65-10,.83c0,0-1,6.64,4.55,14.17l-1.62,2.56L655,235c3.72-5.38,8.18-13.78,8.18-13.78S664.11,215,662.66,213Z" style="fill:#ebebeb"></path><path d="M662.26,213.5s-4.22,7.78-3,13.93C659.21,227.43,664.49,220.75,662.26,213.5Z" style="fill:#e0e0e0"></path><path d="M675.12,225.79s-3.15-8.57-4.89-8.81c0,0-6.45,1.83-11.05,10l-3-.41s-.7-7.1-8.23-11.94c0,0-5.66,7.67-5.8,7.56a16.43,16.43,0,0,0,9.75,5.67c6.43,1.18,15.92,1.8,15.92,1.8S673.85,227.94,675.12,225.79Z" style="fill:#ebebeb"></path><path d="M654.48,227.44s-6.27-4.79-11.79-5.14C642.69,222.3,648.34,228.47,654.48,227.44Z" style="fill:#e0e0e0"></path><path d="M674.46,225.65s-8.83-.65-14,2.95C660.5,228.6,668.76,230.66,674.46,225.65Z" style="fill:#e0e0e0"></path><polygon points="687.69 232.18 680.62 267.86 625.13 260.12 629.38 224.05 687.69 232.18" style="fill:#ebebeb"></polygon><polygon points="677.16 230.71 672.14 266.67 680.62 267.86 687.69 232.18 677.16 230.71" style="fill:#e0e0e0"></polygon><polygon points="683.52 231.6 677.09 267.36 675.16 267.09 680.18 231.13 683.52 231.6" style="fill:#fafafa"></polygon><rect x="633.06" y="243.09" width="36.31" height="4.67" transform="translate(318.21 856.5) rotate(-82.06)" style="fill:#fafafa"></rect><rect x="627.04" y="243.62" width="57.42" height="3.52" transform="translate(37.07 -82.43) rotate(7.4)" style="fill:#fafafa"></rect><path d="M131.1,244.87l-27.83-60a6.57,6.57,0,0,0-3.92-3.53l-29.86-9.88a6.54,6.54,0,0,0-8.07,3.62L49,203.94a6.56,6.56,0,0,0,0,5.28l27.84,60a6.54,6.54,0,0,0,8.65,3.3l42.33-19A6.54,6.54,0,0,0,131.1,244.87ZM74.53,193a6.15,6.15,0,1,1,3.63-7.9A6.15,6.15,0,0,1,74.53,193Z" style="fill:#e0e0e0"></path><path d="M131.1,244.87l-27.83-60a6.57,6.57,0,0,0-3.92-3.53l-29.86-9.88a6.54,6.54,0,0,0-8.07,3.62L49,203.94a6.56,6.56,0,0,0,0,5.28l27.84,60a6.54,6.54,0,0,0,8.65,3.3l42.33-19A6.54,6.54,0,0,0,131.1,244.87ZM74.53,193a6.15,6.15,0,1,1,3.63-7.9A6.15,6.15,0,0,1,74.53,193Z" style="fill:none"></path><path d="M65.78,228.46c-2.72-5.85-.68-11.09,4.3-13.4s10.35-.52,13.07,5.33.69,11.1-4.35,13.43S68.53,234.37,65.78,228.46Zm11.52-5.35c-1.6-3.43-3.44-4.22-5.09-3.46s-2.22,2.68-.62,6.12,3.53,4.18,5.08,3.46S78.89,226.55,77.3,223.11Zm13-16.93,7-3.24-7.38,44.61-7,3.24Zm6.79,27.14c-2.72-5.85-.73-11.07,4.3-13.41s10.35-.52,13.07,5.34.68,11.09-4.35,13.43S99.84,239.22,97.1,233.32ZM108.61,228c-1.59-3.44-3.48-4.21-5.08-3.47s-2.22,2.69-.63,6.12,3.49,4.2,5.09,3.46S110.21,231.4,108.61,228Z" style="fill:#fff"></path><path d="M649.65,162.08,522.9,127a6.11,6.11,0,0,1-4.26-7.53l21.69-78.3a6.12,6.12,0,0,1,7.53-4.27L674.61,72a6.12,6.12,0,0,1,4.27,7.53l-21.7,78.3A6.11,6.11,0,0,1,649.65,162.08Z" style="fill:#e0e0e0"></path><path d="M538.26,96.28,536.13,104l-.79-.21,1.94-7-1.81-.5.19-.71Z" style="fill:#fff"></path><path d="M544.24,105.46l-.2.71-5.39-1.5.15-.56,4.07-2.25c1.1-.61,1.41-1.08,1.56-1.61.25-.89-.23-1.61-1.4-1.94a2.72,2.72,0,0,0-2.34.28l-.43-.64a3.61,3.61,0,0,1,3-.35c1.56.44,2.33,1.5,2,2.79-.21.73-.62,1.33-1.93,2L540,104.29Z" style="fill:#fff"></path><path d="M552.7,106.39l-1.54-.43-.56,2-.79-.22.56-2-4.34-1.2.16-.57,5.49-4,.88.24-5.31,3.88,3.34.92.49-1.78.77.22-.49,1.78,1.54.42Z" style="fill:#fff"></path><path d="M564.49,109.65l-1.54-.42-.56,2-.79-.22.56-2-4.34-1.21.16-.57,5.49-4,.87.25L559,107.38l3.34.93.5-1.78.77.21-.5,1.78,1.54.43Z" style="fill:#fff"></path><path d="M571.28,111.27c-.37,1.31-1.56,2.08-3.44,1.56a4.13,4.13,0,0,1-2.48-1.75l.55-.52A3.48,3.48,0,0,0,568,112.1c1.31.36,2.18-.08,2.43-1s-.17-1.77-2.12-2.31l-1.64-.46,1.46-3.74,4.21,1.16-.19.71-3.52-1-.94,2.38,1,.27C571,108.75,571.65,109.91,571.28,111.27Z" style="fill:#fff"></path><path d="M578.89,113.35a2.5,2.5,0,0,1-3.28,1.63c-2.05-.57-2.76-2.29-2.09-4.72.72-2.61,2.53-3.58,4.62-3a3.62,3.62,0,0,1,1.7.92l-.49.55A2.82,2.82,0,0,0,578,108c-1.66-.46-3,.31-3.6,2.4a6.31,6.31,0,0,0-.14.64,2.53,2.53,0,0,1,2.71-.67A2.42,2.42,0,0,1,578.89,113.35Zm-.79-.2a1.75,1.75,0,0,0-1.47-2.19,1.85,1.85,0,0,0-2.45,1.13c-.23.85.25,1.84,1.58,2.21A1.74,1.74,0,0,0,578.1,113.15Z" style="fill:#fff"></path><path d="M589.39,116.35c-.36,1.28-1.57,2-3.42,1.5a4.18,4.18,0,0,1-2.5-1.76l.56-.52a3.45,3.45,0,0,0,2.14,1.55c1.27.36,2.14,0,2.4-1s-.22-1.7-1.65-2.1l-.55-.15.16-.58,2.87-2.08-3.93-1.09.19-.71,5,1.37-.16.56-2.93,2.14C589.14,114,589.73,115.12,589.39,116.35Z" style="fill:#fff"></path><path d="M597.12,118.4a2.48,2.48,0,0,1-3.28,1.63c-2-.56-2.76-2.29-2.09-4.72.73-2.61,2.53-3.58,4.62-3a3.66,3.66,0,0,1,1.71.92l-.5.55a2.74,2.74,0,0,0-1.39-.77c-1.66-.46-3,.31-3.6,2.39a6.31,6.31,0,0,0-.14.64,2.56,2.56,0,0,1,2.72-.67A2.41,2.41,0,0,1,597.12,118.4Zm-.78-.2c.28-1-.29-1.86-1.48-2.19a1.84,1.84,0,0,0-2.44,1.13c-.24.85.25,1.84,1.57,2.21A1.75,1.75,0,0,0,596.34,118.2Z" style="fill:#fff"></path><path d="M605.69,115l-.15.56-5.2,6.24-.86-.24,5.1-6.11-4-1.09-.4,1.44-.78-.22.59-2.14Z" style="fill:#fff"></path><path d="M616.69,118l-.16.56-5.19,6.24-.86-.24,5.1-6.11-4-1.1-.39,1.44-.78-.21.59-2.15Z" style="fill:#fff"></path><path d="M622.72,125.65c-.38,1.37-1.77,1.89-3.6,1.38s-2.73-1.66-2.36-3a2,2,0,0,1,2-1.48,1.8,1.8,0,0,1-.74-2c.35-1.25,1.63-1.74,3.26-1.29s2.49,1.53,2.15,2.79a1.82,1.82,0,0,1-1.7,1.35A2,2,0,0,1,622.72,125.65Zm-.81-.23c.26-1-.39-1.77-1.75-2.14s-2.33,0-2.59.93.37,1.78,1.73,2.15S621.64,126.37,621.91,125.42Zm-1.58-2.77c1.2.33,2.06,0,2.29-.84s-.37-1.61-1.52-1.93-2.05,0-2.28.86S619.13,122.32,620.33,122.65Z" style="fill:#fff"></path><path d="M630.68,126c-.73,2.62-2.53,3.59-4.62,3a3.67,3.67,0,0,1-1.71-.93l.5-.54a2.81,2.81,0,0,0,1.39.77c1.66.46,3-.31,3.6-2.4a6.07,6.07,0,0,0,.14-.63,2.54,2.54,0,0,1-2.72.66,2.41,2.41,0,0,1-2-3,2.49,2.49,0,0,1,3.28-1.64C630.63,121.8,631.35,123.53,630.68,126Zm-.67-1.82c.24-.85-.24-1.85-1.57-2.22a1.75,1.75,0,1,0-.87,3.35A1.85,1.85,0,0,0,630,124.13Z" style="fill:#fff"></path><path d="M639.52,124.33l-2.13,7.7-.79-.22,1.94-7-1.81-.5.19-.71Z" style="fill:#fff"></path><path d="M645.5,133.51l-.2.71-5.39-1.5.15-.56,4.07-2.24c1.1-.62,1.41-1.09,1.56-1.62.24-.89-.23-1.61-1.41-1.94a2.7,2.7,0,0,0-2.33.28l-.43-.64a3.57,3.57,0,0,1,3-.34c1.56.43,2.33,1.49,2,2.78-.21.74-.62,1.33-1.94,2.06l-3.32,1.84Z" style="fill:#fff"></path><path d="M652.81,133.92c-.35,1.28-1.56,2-3.42,1.5a4.13,4.13,0,0,1-2.49-1.76l.56-.51a3.5,3.5,0,0,0,2.13,1.55c1.28.35,2.15,0,2.41-1s-.23-1.7-1.65-2.1l-.55-.15.16-.58,2.87-2.08-3.93-1.09.19-.7,4.95,1.36-.16.57L651,131.05C652.57,131.59,653.15,132.69,652.81,133.92Z" style="fill:#fff"></path><rect x="620.17" y="103.7" width="3.47" height="63.93" transform="translate(325.16 698.78) rotate(-74.52)" style="fill:#fff"></rect><rect x="633.32" y="130.09" width="3.47" height="32.79" transform="translate(324.38 719.4) rotate(-74.52)" style="fill:#fff"></rect><g style="opacity:0.5"><rect x="537.6" y="72.26" width="26.82" height="20.04" rx="4.96" transform="matrix(0.96, 0.27, -0.27, 0.96, 41.96, -144.12)" style="fill:#f5f5f5"></rect></g><path d="M536.89,83l.34-1.24,13.31,3.69a2.9,2.9,0,0,0,1.55-5.58L538.78,76.2l.34-1.24,13.31,3.69a4.17,4.17,0,1,1-2.23,8Z" style="fill:#e0e0e0"></path><rect x="558.64" y="80.14" width="1.29" height="9.48" transform="translate(327.66 600.97) rotate(-74.46)" style="fill:#e0e0e0"></rect><rect x="546.17" y="63.1" width="68.98" height="5.92" transform="translate(38.72 -152.65) rotate(15.49)" style="fill:#fff"></rect><rect x="647.89" y="79.67" width="13.88" height="13.88" rx="3.15" transform="translate(46.9 -171.71) rotate(15.49)" style="fill:#fff"></rect><path d="M96.07,327.91c-.06,0-.11-.83-.4-2.3a28.56,28.56,0,0,0-1.84-6,22.88,22.88,0,0,0-5.22-7.66,14.58,14.58,0,0,0-20.49-.07,23,23,0,0,0-5.26,7.64,28.64,28.64,0,0,0-1.85,6c-.29,1.47-.36,2.3-.42,2.3a4,4,0,0,1,0-.61c0-.4.08-1,.19-1.72a25.73,25.73,0,0,1,1.71-6.15,22.77,22.77,0,0,1,5.27-7.87,15,15,0,0,1,21.2.07,22.91,22.91,0,0,1,5.23,7.89,26.55,26.55,0,0,1,1.69,6.16c.11.74.16,1.32.18,1.72A2.36,2.36,0,0,1,96.07,327.91Z" style="fill:#e0e0e0"></path><path d="M102.2,327.91c-.06,0-.12-.83-.4-2.3a29.81,29.81,0,0,0-1.84-6,23,23,0,0,0-5.22-7.66,14.58,14.58,0,0,0-20.49-.07A22.88,22.88,0,0,0,69,319.48a29.4,29.4,0,0,0-1.86,6c-.29,1.47-.35,2.3-.41,2.3a2.82,2.82,0,0,1,0-.61,15.73,15.73,0,0,1,.19-1.72,26.11,26.11,0,0,1,1.7-6.15,22.92,22.92,0,0,1,5.27-7.87,15,15,0,0,1,21.2.07,22.81,22.81,0,0,1,5.24,7.89,25.94,25.94,0,0,1,1.68,6.16c.11.74.16,1.32.18,1.72A2.18,2.18,0,0,1,102.2,327.91Z" style="fill:#e0e0e0"></path><polygon points="43.06 325.72 112.25 325.19 113.76 419.5 36.12 419.5 43.06 325.72" style="fill:#ebebeb"></polygon><polygon points="112.25 325.19 120.94 325.19 128.41 419.5 113.76 419.5 112.25 325.19" style="fill:#e0e0e0"></polygon><rect x="52.29" y="362.32" width="45.29" height="7.59" style="fill:#fff"></rect><path d="M648,327.91c-.06,0-.12-.83-.41-2.3a29,29,0,0,0-1.83-6,23.18,23.18,0,0,0-5.22-7.66,14.58,14.58,0,0,0-20.49-.07,22.88,22.88,0,0,0-5.26,7.64,28.78,28.78,0,0,0-1.86,6c-.29,1.47-.35,2.3-.41,2.3a2.18,2.18,0,0,1,0-.61c0-.4.07-1,.18-1.72a26.72,26.72,0,0,1,1.71-6.15,22.77,22.77,0,0,1,5.27-7.87,15,15,0,0,1,21.2.07,23,23,0,0,1,5.24,7.89,26.43,26.43,0,0,1,1.68,6.16c.11.74.16,1.32.18,1.72A2.82,2.82,0,0,1,648,327.91Z" style="fill:#e0e0e0"></path><path d="M654.15,327.91c-.06,0-.11-.83-.4-2.3a28.56,28.56,0,0,0-1.84-6,22.88,22.88,0,0,0-5.22-7.66,14.58,14.58,0,0,0-20.49-.07,23,23,0,0,0-5.26,7.64,28.64,28.64,0,0,0-1.85,6c-.29,1.47-.36,2.3-.41,2.3a2.18,2.18,0,0,1,0-.61,15.22,15.22,0,0,1,.18-1.72,25.73,25.73,0,0,1,1.71-6.15,22.77,22.77,0,0,1,5.27-7.87,15,15,0,0,1,21.2.07,22.77,22.77,0,0,1,5.23,7.89,26,26,0,0,1,1.69,6.16c.11.74.16,1.32.18,1.72A2.36,2.36,0,0,1,654.15,327.91Z" style="fill:#e0e0e0"></path><polygon points="595.02 325.72 664.2 325.19 665.71 419.5 588.08 419.5 595.02 325.72" style="fill:#ebebeb"></polygon><polygon points="664.2 325.19 672.89 325.19 680.37 419.5 665.71 419.5 664.2 325.19" style="fill:#e0e0e0"></polygon><rect x="604.25" y="362.32" width="45.29" height="7.59" style="fill:#fff"></rect></g></svg>